{"accessors":[{"bufferView":0,"componentType":5126,"count":65532,"max":[4.533072471618652,132.94528198242188,4.538829803466797],"min":[-3.851444721221924,123.94267272949219,-3.5082409381866455],"type":"VEC3","byteOffset":0},{"bufferView":1,"byteOffset":0,"componentType":5126,"count":65532,"max":[0.9999983310699463,0.9999562501907349,0.9999558329582214],"min":[-0.9999721050262451,-0.9999440908432007,-0.9999808073043823],"type":"VEC3"},{"bufferView":2,"componentType":5125,"count":377838,"type":"SCALAR","byteOffset":0},{"bufferView":3,"byteOffset":0,"componentType":5126,"count":12027,"max":[4.5345330238342285,132.53456115722656,4.537408828735352],"min":[-3.845309019088745,123.90117645263672,-3.124821424484253],"type":"VEC3"},{"bufferView":4,"byteOffset":0,"componentType":5126,"count":12027,"max":[0.9995404481887817,0.9997837543487549,0.9997919797897339],"min":[-0.9999659657478333,-0.9997217059135437,-0.9997742176055908],"type":"VEC3"},{"bufferView":5,"byteOffset":0,"componentType":5125,"count":53004,"type":"SCALAR"},{"bufferView":6,"byteOffset":0,"componentType":5126,"count":41122,"max":[4.391465663909912,133.2581329345703,4.531607627868652],"min":[-3.8733253479003906,124.0849609375,-3.6788852214813232],"type":"VEC3"},{"bufferView":7,"byteOffset":0,"componentType":5126,"count":41122,"max":[0.999938428401947,0.9999843835830688,0.9998041987419128],"min":[-0.9999430775642395,-0.999948263168335,-0.9999368190765381],"type":"VEC3"},{"bufferView":8,"byteOffset":0,"componentType":5125,"count":246720,"type":"SCALAR"},{"bufferView":9,"byteOffset":0,"componentType":5126,"count":40316,"max":[4.448609352111816,139.6116485595703,4.480184555053711],"min":[-4.689827919006348,123.93546295166016,-5.110015869140625],"type":"VEC3"},{"bufferView":10,"byteOffset":0,"componentType":5126,"count":40316,"max":[0.9999532103538513,1,0.9999926686286926],"min":[-0.9999805092811584,-0.9999997019767761,-0.9999753832817078],"type":"VEC3"},{"bufferView":11,"byteOffset":0,"componentType":5125,"count":226800,"type":"SCALAR"},{"bufferView":12,"byteOffset":0,"componentType":5126,"count":4570,"max":[0.4933711886405945,130.97276306152344,-0.8317630887031555],"min":[-0.4136057496070862,129.71363830566406,-2.020125389099121],"type":"VEC3"},{"bufferView":13,"byteOffset":0,"componentType":5126,"count":4570,"max":[0.9999538064002991,0.9995985627174377,0.9999021887779236],"min":[-0.9994862675666809,-0.9964166283607483,-0.9998852610588074],"type":"VEC3"},{"bufferView":14,"byteOffset":0,"componentType":5125,"count":25392,"type":"SCALAR"},{"bufferView":15,"byteOffset":0,"componentType":5126,"count":3443,"max":[2.800111770629883,131.2916259765625,0.4344968795776367],"min":[0.36305153369903564,127.38408660888672,-2.8114371299743652],"type":"VEC3"},{"bufferView":16,"byteOffset":0,"componentType":5126,"count":3443,"max":[0.9999077320098877,0.9996110796928406,0.9991732835769653],"min":[-0.998352587223053,-0.9962672591209412,-0.9966773986816406],"type":"VEC3"},{"bufferView":17,"byteOffset":0,"componentType":5125,"count":17328,"type":"SCALAR"},{"bufferView":18,"byteOffset":0,"componentType":5126,"count":4570,"max":[0.38878560066223145,133.44300842285156,1.1083495616912842],"min":[-0.8699314594268799,132.07814025878906,-0.08361554145812988],"type":"VEC3"},{"bufferView":19,"byteOffset":0,"componentType":5126,"count":4570,"max":[0.9994862079620361,0.99875408411026,0.9984782934188843],"min":[-0.9994167685508728,-0.9996469020843506,-0.9999477863311768],"type":"VEC3"},{"bufferView":20,"byteOffset":0,"componentType":5125,"count":25392,"type":"SCALAR"},{"bufferView":21,"byteOffset":0,"componentType":5126,"count":5739,"max":[-0.9784011244773865,130.38882446289062,1.1633007526397705],"min":[-3.471550226211548,126.6165542602539,-1.2531089782714844],"type":"VEC3"},{"bufferView":22,"byteOffset":0,"componentType":5126,"count":5739,"max":[0.9998393654823303,0.999512255191803,0.9995705485343933],"min":[-0.9998224377632141,-0.9960182309150696,-0.9994587898254395],"type":"VEC3"},{"bufferView":23,"byteOffset":0,"componentType":5125,"count":29784,"type":"SCALAR"},{"bufferView":24,"byteOffset":0,"componentType":5126,"count":33978,"max":[4.506649494171143,139.60975646972656,3.6647093296051025],"min":[-4.698314189910889,123.82686614990234,-5.174905300140381],"type":"VEC3"},{"bufferView":25,"byteOffset":0,"componentType":5126,"count":33978,"max":[0.9999192357063293,0.9999994039535522,0.9999963045120239],"min":[-0.9999989867210388,-0.9999995827674866,-0.9999799728393555],"type":"VEC3"},{"bufferView":26,"byteOffset":0,"componentType":5125,"count":188544,"type":"SCALAR"},{"bufferView":27,"byteOffset":0,"componentType":5126,"count":3443,"max":[2.888352394104004,131.2266082763672,0.44659507274627686],"min":[0.3863481879234314,127.3136978149414,-2.853607654571533],"type":"VEC3"},{"bufferView":28,"byteOffset":0,"componentType":5126,"count":3443,"max":[0.9999727606773376,0.9975708723068237,0.9990454316139221],"min":[-0.9999250769615173,-0.9965365529060364,-0.9987581372261047],"type":"VEC3"},{"bufferView":29,"byteOffset":0,"componentType":5125,"count":17328,"type":"SCALAR"},{"bufferView":30,"byteOffset":0,"componentType":5126,"count":4570,"max":[0.4775693714618683,130.96559143066406,-0.8906736373901367],"min":[-0.43065690994262695,129.68643188476562,-2.1382176876068115],"type":"VEC3"},{"bufferView":31,"byteOffset":0,"componentType":5126,"count":4570,"max":[0.9999505281448364,0.9997677803039551,0.9998519420623779],"min":[-0.9997990727424622,-0.9968087077140808,-0.9995766282081604],"type":"VEC3"},{"bufferView":32,"byteOffset":0,"componentType":5125,"count":25392,"type":"SCALAR"},{"bufferView":33,"byteOffset":0,"componentType":5126,"count":4570,"max":[0.4861485958099365,133.4949188232422,1.0816917419433594],"min":[-0.7725684642791748,132.1300506591797,-0.11027336120605469],"type":"VEC3"},{"bufferView":34,"byteOffset":0,"componentType":5126,"count":4570,"max":[0.9997512698173523,0.9976813793182373,0.9984781742095947],"min":[-0.9994168281555176,-0.996741771697998,-0.9999476671218872],"type":"VEC3"},{"bufferView":35,"byteOffset":0,"componentType":5125,"count":25392,"type":"SCALAR"},{"bufferView":36,"byteOffset":0,"componentType":5126,"count":5739,"max":[-0.9784011244773865,130.35507202148438,1.1633007526397705],"min":[-3.463247060775757,126.6165542602539,-1.2531089782714844],"type":"VEC3"},{"bufferView":37,"byteOffset":0,"componentType":5126,"count":5739,"max":[0.998389482498169,0.9999896287918091,0.9996983408927917],"min":[-0.9974313378334045,-0.9973390102386475,-0.9994587898254395],"type":"VEC3"},{"bufferView":38,"byteOffset":0,"componentType":5125,"count":29784,"type":"SCALAR"}],"asset":{"extras":{"author":"reynosa2000 (https://sketchfab.com/reynosa2000)","license":"CC-BY-4.0 (http://creativecommons.org/licenses/by/4.0/)","source":"https://sketchfab.com/3d-models/human-heart-bdb9d77136b64612bacabae60a5ed9ce","title":"Human Heart"},"generator":"Sketchfab-15.55.0 | pruned (position+normal+indices only)","version":"2.0"},"bufferViews":[{"buffer":0,"byteOffset":0,"byteLength":786384,"target":34962},{"buffer":0,"byteOffset":786384,"byteLength":786384,"target":34962},{"buffer":0,"byteOffset":1572768,"byteLength":1511352,"target":34963},{"buffer":0,"byteOffset":3084120,"byteLength":144324,"target":34962},{"buffer":0,"byteOffset":3228444,"byteLength":144324,"target":34962},{"buffer":0,"byteOffset":3372768,"byteLength":212016,"target":34963},{"buffer":0,"byteOffset":3584784,"byteLength":493464,"target":34962},{"buffer":0,"byteOffset":4078248,"byteLength":493464,"target":34962},{"buffer":0,"byteOffset":4571712,"byteLength":986880,"target":34963},{"buffer":0,"byteOffset":5558592,"byteLength":483792,"target":34962},{"buffer":0,"byteOffset":6042384,"byteLength":483792,"target":34962},{"buffer":0,"byteOffset":6526176,"byteLength":907200,"target":34963},{"buffer":0,"byteOffset":7433376,"byteLength":54840,"target":34962},{"buffer":0,"byteOffset":7488216,"byteLength":54840,"target":34962},{"buffer":0,"byteOffset":7543056,"byteLength":101568,"target":34963},{"buffer":0,"byteOffset":7644624,"byteLength":41316,"target":34962},{"buffer":0,"byteOffset":7685940,"byteLength":41316,"target":34962},{"buffer":0,"byteOffset":7727256,"byteLength":69312,"target":34963},{"buffer":0,"byteOffset":7796568,"byteLength":54840,"target":34962},{"buffer":0,"byteOffset":7851408,"byteLength":54840,"target":34962},{"buffer":0,"byteOffset":7906248,"byteLength":101568,"target":34963},{"buffer":0,"byteOffset":8007816,"byteLength":68868,"target":34962},{"buffer":0,"byteOffset":8076684,"byteLength":68868,"target":34962},{"buffer":0,"byteOffset":8145552,"byteLength":119136,"target":34963},{"buffer":0,"byteOffset":8264688,"byteLength":407736,"target":34962},{"buffer":0,"byteOffset":8672424,"byteLength":407736,"target":34962},{"buffer":0,"byteOffset":9080160,"byteLength":754176,"target":34963},{"buffer":0,"byteOffset":9834336,"byteLength":41316,"target":34962},{"buffer":0,"byteOffset":9875652,"byteLength":41316,"target":34962},{"buffer":0,"byteOffset":9916968,"byteLength":69312,"target":34963},{"buffer":0,"byteOffset":9986280,"byteLength":54840,"target":34962},{"buffer":0,"byteOffset":10041120,"byteLength":54840,"target":34962},{"buffer":0,"byteOffset":10095960,"byteLength":101568,"target":34963},{"buffer":0,"byteOffset":10197528,"byteLength":54840,"target":34962},{"buffer":0,"byteOffset":10252368,"byteLength":54840,"target":34962},{"buffer":0,"byteOffset":10307208,"byteLength":101568,"target":34963},{"buffer":0,"byteOffset":10408776,"byteLength":68868,"target":34962},{"buffer":0,"byteOffset":10477644,"byteLength":68868,"target":34962},{"buffer":0,"byteOffset":10546512,"byteLength":119136,"target":34963}],"buffers":[{"byteLength":10665648,"uri":"scene.bin"}],"extensionsUsed":["KHR_materials_specular"],"materials":[{"doubleSided":true,"extensions":{"KHR_materials_specular":{"specularColorFactor":[1,1,1],"specularFactor":1}},"name":"arteries","pbrMetallicRoughness":{"baseColorFactor":[0.66,0,0,1],"roughnessFactor":0.4607558139534884}},{"doubleSided":true,"name":"veins","pbrMetallicRoughness":{"baseColorFactor":[0,0.10823100000000005,0.67,1],"roughnessFactor":0.7281976744186047}},{"doubleSided":true,"name":"blinn1","pbrMetallicRoughness":{"roughnessFactor":0.6875}},{"doubleSided":true,"extensions":{"KHR_materials_specular":{"specularColorFactor":[1,1,1],"specularFactor":0.7136627906976745}},"name":"valves","pbrMetallicRoughness":{"baseColorFactor":[0.855605185835103,0.5126034538393992,0.5126034538393992,1],"roughnessFactor":0.3938953488372093}},{"doubleSided":true,"name":"blinn2","pbrMetallicRoughness":{"roughnessFactor":0.8414967632498965}}],"meshes":[{"name":"coronary_arteries_closed_animation_arteries_0","primitives":[{"attributes":{"NORMAL":1,"POSITION":0},"indices":2,"material":0,"mode":4}]},{"name":"coronary_arteries_closed_animation_arteries_0","primitives":[{"attributes":{"NORMAL":4,"POSITION":3},"indices":5,"material":0,"mode":4}]},{"name":"coronary_veins_closed_animation_veins_0","primitives":[{"attributes":{"NORMAL":7,"POSITION":6},"indices":8,"material":1,"mode":4}]},{"name":"heart_closed_animation_blinn1_0","primitives":[{"attributes":{"NORMAL":10,"POSITION":9},"indices":11,"material":2,"mode":4}]},{"name":"aortic_valve_closed_animation_valves_0","primitives":[{"attributes":{"NORMAL":13,"POSITION":12},"indices":14,"material":3,"mode":4}]},{"name":"mitral_valve_closed_animation_valves_0","primitives":[{"attributes":{"NORMAL":16,"POSITION":15},"indices":17,"material":3,"mode":4}]},{"name":"pulmonary_valve_closed_animation_valves_0","primitives":[{"attributes":{"NORMAL":19,"POSITION":18},"indices":20,"material":3,"mode":4}]},{"name":"tricuspid_valve_closed_animation_valves_0","primitives":[{"attributes":{"NORMAL":22,"POSITION":21},"indices":23,"material":3,"mode":4}]},{"name":"heart_section_animation_blinn2_0","primitives":[{"attributes":{"NORMAL":25,"POSITION":24},"indices":26,"material":4,"mode":4}]},{"name":"mitral_valve_section_animation_valves_0","primitives":[{"attributes":{"NORMAL":28,"POSITION":27},"indices":29,"material":3,"mode":4}]},{"name":"aortic_valve_section_animation_valves_0","primitives":[{"attributes":{"NORMAL":31,"POSITION":30},"indices":32,"material":3,"mode":4}]},{"name":"pulmonary_valve_section_animation_valves_0","primitives":[{"attributes":{"NORMAL":34,"POSITION":33},"indices":35,"material":3,"mode":4}]},{"name":"tricuspid_valve_section_animation_valves_0","primitives":[{"attributes":{"NORMAL":37,"POSITION":36},"indices":38,"material":3,"mode":4}]}],"nodes":[{"children":[1],"matrix":[1,0,0,0,0,2.220446049250313e-16,-1,0,0,1,2.220446049250313e-16,0,0,0,0,1],"name":"Sketchfab_model"},{"children":[2],"matrix":[0.009999999776482582,0,0,0,0,0,0.009999999776482582,0,0,-0.009999999776482582,0,0,0,0,0,1],"name":"Heart_MultipleAgain.fbx"},{"children":[3],"name":"Object_2"},{"children":[4,107,122,145],"name":"RootNode"},{"children":[5],"name":"jnt_grp","scale":[2.5399999618530273,2.5399999618530273,2.5399999618530273]},{"children":[6,83,84,86,88,90,92,94,96,98,100,102,104,106,82,85,87,89,91,93,95,97,99,101,103,105],"name":"Object_5"},{"children":[7,10,13,16,19,22,26,30,34,37,40,42,50,54,60,64,69,73,77],"name":"_rootJoint"},{"children":[8,9],"name":"Bone019_01","rotation":[-0.09951126575469971,0.37746161222457886,0.5637208223342896,0.7279004454612732],"translation":[1.7769449949264526,130.1466064453125,-2.0653231143951416]},{"name":"Bone019_01_0"},{"name":"Bone019_01_1"},{"children":[11,12],"name":"Bone020_00","rotation":[-0.14371968805789948,0.3683494031429291,0.5444539785385132,0.7397521734237671],"translation":[1.0481040477752686,130.5220947265625,-2.0607728958129883]},{"name":"Bone020_00_0"},{"name":"Bone020_00_1"},{"children":[14,15],"name":"Bone013_03","rotation":[-0.48233845829963684,0.014519697055220604,0.6270337700843811,0.6115288138389587],"translation":[0.08559556305408478,132.3468017578125,0.29214560985565186]},{"name":"Bone013_03_0"},{"name":"Bone013_03_1"},{"children":[17,18],"name":"Bone014_04","rotation":[-0.21926511824131012,0.2474813014268875,0.5763117074966431,0.7473557591438293],"translation":[-0.16171300411224365,132.93429565429688,0.9178979992866516]},{"name":"Bone014_04_0"},{"name":"Bone014_04_1"},{"children":[20,21],"name":"Bone015_05","rotation":[-0.4546339809894562,0.04242180660367012,0.6257655620574951,0.6323968768119812],"scale":[1,0.9999998807907104,1],"translation":[-0.581066906452179,132.5941925048828,0.3630048930644989]},{"name":"Bone015_05_0"},{"name":"Bone015_05_1"},{"children":[23,24,25],"name":"Bone016_06","rotation":[-0.5874699950218201,0.18238835036754608,-0.23377273976802826,0.7529699802398682],"scale":[1,0.9999998807907104,1],"translation":[0.18958589434623718,130.45069885253906,-1.100188970565796]},{"name":"Bone016_06_0"},{"name":"Bone016_06_1"},{"name":"Bone016_06_2"},{"children":[27,28,29],"name":"Bone017_07","rotation":[-0.7412329316139221,0.23012687265872955,-0.18696759641170502,0.6022113561630249],"translation":[0.22795920073986053,130.50650024414062,-1.9292030334472656]},{"name":"Bone017_07_0"},{"name":"Bone017_07_1"},{"name":"Bone017_07_2"},{"children":[31,32,33],"name":"Bone018_08","rotation":[-0.34500259160995483,0.1071101725101471,-0.27648261189460754,0.8905381560325623],"scale":[1,0.9999998807907104,1],"translation":[-0.18738269805908203,129.902099609375,-1.5622329711914062]},{"name":"Bone018_08_0"},{"name":"Bone018_08_1"},{"name":"Bone018_08_2"},{"children":[35,36],"name":"Bone010_09","rotation":[-0.15985308587551117,0.06918631494045258,0.9071077704429626,0.3831654489040375],"translation":[-2.2207539081573486,130.22454833984375,-0.4456470012664795]},{"name":"Bone010_09_0"},{"name":"Bone010_09_1"},{"children":[38,39],"name":"Bone011_010","rotation":[-0.2308967560529709,-0.10744242370128632,0.9033755660057068,0.34504434466362],"translation":[-2.6321165561676025,129.9803924560547,-0.14151674509048462]},{"name":"Bone011_010_0"},{"name":"Bone011_010_1"},{"children":[41],"name":"Bone012_011","rotation":[-0.340635746717453,-0.4288417398929596,0.8023253083229065,0.2373524308204651],"translation":[-2.5008299350738525,129.86830139160156,-0.6134425401687622]},{"name":"Bone012_011_0"},{"children":[43,44,45,46,47,48,49],"name":"Bone001_012","rotation":[-0.0000012995352562938933,-0.0000013232053106548847,0.7043175101280212,0.7098851203918457],"translation":[-0.12087869644165039,119.92230224609375,0.000005245209194981726]},{"name":"Bone002_013","rotation":[-3.566036355096003e-13,-1.5425265121680044e-15,-9.495124567410715e-19,1],"translation":[20.191490173339844,0.00000286102294921875,2.7609758035396226e-7]},{"name":"Bone001_012_0"},{"name":"Bone001_012_1"},{"name":"Bone001_012_2"},{"name":"Bone001_012_3"},{"name":"Bone001_012_4"},{"name":"Bone001_012_5"},{"children":[51,52,53],"name":"Bone003_014","rotation":[-0.0000034646925541892415,-0.000001501769133938069,0.922365665435791,0.38631826639175415],"scale":[0.6977133750915527,0.9717937111854553,0.9717937111854553],"translation":[-3.2266530990600586,131.14010620117188,-2.038828134536743]},{"name":"Bone003_014_0"},{"name":"Bone003_014_1"},{"name":"Bone003_014_2"},{"children":[55,56,57,58,59],"name":"Bone006_015","rotation":[0.8164718151092529,-0.48358333110809326,0.1401674896478653,0.2826198637485504],"scale":[1.0483750104904175,1.0483750104904175,1.0483750104904175],"translation":[0.653205394744873,127.68389892578125,1.426864504814148]},{"name":"Bone006_015_0"},{"name":"Bone006_015_1"},{"name":"Bone006_015_2"},{"name":"Bone006_015_3"},{"name":"Bone006_015_4"},{"children":[61,62,63],"name":"Bone007_016","rotation":[0.8171290755271912,-0.4831222593784332,0.14197629690170288,0.2805987596511841],"scale":[0.9538571238517761,0.953856885433197,0.9538568258285522],"translation":[0.2181774079799652,132.04820251464844,-3.5304698944091797]},{"name":"Bone007_016_0"},{"name":"Bone007_016_1"},{"name":"Bone007_016_2"},{"children":[65,66,67,68],"name":"Bone008_017","rotation":[-0.0000034646925541892415,-0.000001501769133938069,0.922365665435791,0.38631826639175415],"scale":[0.6977133750915527,0.9717937111854553,0.9717937111854553],"translation":[-2.8257369995117188,131.797607421875,0.5498560667037964]},{"name":"Bone008_017_0"},{"name":"Bone008_017_1"},{"name":"Bone008_017_2"},{"name":"Bone008_017_3"},{"children":[70,71,72],"name":"Bone009_018","rotation":[0.8171288371086121,-0.48312270641326904,0.14197802543640137,0.28059786558151245],"scale":[0.9538571238517761,0.9538570046424866,0.953856885433197],"translation":[1.5818150043487549,132.91500854492188,-0.28442978858947754]},{"name":"Bone009_018_0"},{"name":"Bone009_018_1"},{"name":"Bone009_018_2"},{"children":[74,75,76],"name":"Bone004_019","rotation":[0.039872001856565475,0.17125439643859863,0.8274562358856201,0.5332903265953064],"scale":[1.0483750104904175,1.0483750104904175,1.0483750104904175],"translation":[-0.7554510235786438,127.12355041503906,1.4791984558105469]},{"name":"Bone004_019_0"},{"name":"Bone004_019_1"},{"name":"Bone004_019_2"},{"children":[78,79,80,81],"name":"Bone005_020","rotation":[0.039872001856565475,0.17125439643859863,0.8274562358856201,0.5332903265953064],"scale":[1.0483750104904175,1.0483750104904175,1.0483750104904175],"translation":[2.4600045680999756,128.2901611328125,1.0539660453796387]},{"name":"Bone005_020_0"},{"name":"Bone005_020_1"},{"name":"Bone005_020_2"},{"name":"Bone005_020_3"},{"matrix":[2.54,-8.326672684688674e-17,1.3877787807814457e-16,0,1.3877787807814457e-16,1.5553014349171386e-16,-2.54,0,8.32667268468867e-17,2.5399999999999996,1.5553014349171383e-16,0,0.3745120000000415,329.753493,-4.376793999999935,1],"name":"Object_82"},{"mesh":0,"name":"Object_83"},{"mesh":1,"name":"Object_84"},{"matrix":[2.54,-1.3877787807814457e-16,0,0,8.49769420904307e-33,1.5553014349171386e-16,-2.54,0,1.387778780781446e-16,2.5400000000000005,1.5553014349171388e-16,0,0.3745119999999933,329.753493,-4.3767940000000225,1],"name":"Object_85"},{"mesh":2,"name":"Object_86"},{"matrix":[2.5400000000000005,-8.326672684688673e-17,-4.413910000278242e-7,0,-4.413910000278241e-7,1.555301579614736e-16,-2.54,0,8.32667538742905e-17,2.5400000000000005,1.5553014349171154e-16,0,0.3426530000000054,329.747292,-4.367956000000015,1],"name":"Object_87"},{"mesh":3,"name":"Object_88"},{"matrix":[2.5399999999999996,1.6653345369377348e-16,-2.0816681711721685e-16,0,-2.081668171172169e-16,1.5553014349171386e-16,-2.54,0,-1.665334536937735e-16,2.54,1.5553014349171386e-16,0,0.22936600000001023,329.773802,-4.47414100000003,1],"name":"Object_89"},{"mesh":4,"name":"Object_90"},{"matrix":[2.5399999999999996,1.6653345369377348e-16,-2.0816681711721685e-16,0,-2.081668171172169e-16,1.5553014349171386e-16,-2.54,0,-1.665334536937735e-16,2.54,1.5553014349171386e-16,0,0.22936600000001023,329.773802,-4.47414100000003,1],"name":"Object_91"},{"mesh":5,"name":"Object_92"},{"matrix":[2.54,-8.326672684688674e-17,1.3877787807814457e-16,0,1.3877787807814457e-16,1.5553014349171386e-16,-2.54,0,8.32667268468867e-17,2.5399999999999996,1.5553014349171383e-16,0,0.2293660000000428,329.773802,-4.474140999999933,1],"name":"Object_93"},{"mesh":6,"name":"Object_94"},{"matrix":[2.54,-1.3877787807814457e-16,0,0,8.49769420904307e-33,1.5553014349171386e-16,-2.54,0,1.387778780781446e-16,2.5400000000000005,1.5553014349171388e-16,0,0.22936599999999596,329.773802,-4.4741409999999595,1],"name":"Object_95"},{"mesh":7,"name":"Object_96"},{"matrix":[2.54,-1.3877787807814457e-16,0,0,8.49769420904307e-33,1.5553014349171386e-16,-2.54,0,1.387778780781446e-16,2.5400000000000005,1.5553014349171388e-16,0,0.40050399999997177,329.571596,-4.474348000000026,1],"name":"Object_97"},{"mesh":8,"name":"Object_98"},{"matrix":[2.5399999999999996,1.6653345369377348e-16,-2.0816681711721685e-16,0,-2.081668171172169e-16,1.5553014349171386e-16,-2.54,0,-1.665334536937735e-16,2.54,1.5553014349171386e-16,0,0.45349699999999965,329.595045,-4.443412000000006,1],"name":"Object_99"},{"mesh":9,"name":"Object_100"},{"matrix":[2.5399999999999996,1.6653345369377348e-16,-2.0816681711721685e-16,0,-2.081668171172169e-16,1.5553014349171386e-16,-2.54,0,-1.665334536937735e-16,2.54,1.5553014349171386e-16,0,0.22936599999999546,329.773793,-4.474141000000049,1],"name":"Object_101"},{"mesh":10,"name":"Object_102"},{"matrix":[2.54,-8.326672684688674e-17,1.3877787807814457e-16,0,1.3877787807814457e-16,1.5553014349171386e-16,-2.54,0,8.32667268468867e-17,2.5399999999999996,1.5553014349171383e-16,0,0.47666800000000675,329.905685,-4.541852000000005,1],"name":"Object_103"},{"mesh":11,"name":"Object_104"},{"matrix":[2.54,-1.3877787807814457e-16,0,0,8.49769420904307e-33,1.5553014349171386e-16,-2.54,0,1.387778780781446e-16,2.5400000000000005,1.5553014349171388e-16,0,0.22936599999998442,329.773793,-4.474140999999991,1],"name":"Object_105"},{"mesh":12,"name":"Object_106"},{"children":[108,116],"name":"geo_grp","scale":[2.5399999618530273,2.5399999618530273,2.5399999618530273]},{"children":[109,110,111,112,113,114,115],"name":"human_heart_closed_animation","rotation":[-0.7071068286895752,0,0,0.7071068286895752],"translation":[0.1130000501871109,129.82843017578125,-1.7445504665374756]},{"name":"coronary_arteries_closed_animation","translation":[0.0344456247985363,-0.021403227001428604,-0.004220145288854837]},{"name":"coronary_veins_closed_animation","translation":[0.0344456247985363,-0.021403227001428604,-0.004220145288854837]},{"name":"heart_closed_animation","rotation":[-1.1102230246251565e-16,8.349408739359583e-24,8.688795105626923e-8,1],"translation":[0.02190290205180645,-0.024882826954126358,-0.006661551538854837]},{"name":"aortic_valve_closed_animation","translation":[-0.02269853837788105,0.016922321170568466,0.0037754604127258062]},{"name":"mitral_valve_closed_animation","translation":[-0.02269853837788105,0.016922321170568466,0.0037754604127258062]},{"name":"pulmonary_valve_closed_animation","translation":[-0.02269853837788105,0.016922321170568466,0.0037754604127258062]},{"name":"tricuspid_valve_closed_animation","translation":[-0.02269853837788105,0.016922321170568466,0.0037754604127258062]},{"children":[117,118,119,120,121],"name":"human_heart_section_animation","rotation":[-0.7071068286895752,0,0,0.7071068286895752],"translation":[0.1408977210521698,129.81259155273438,-1.7644010782241821]},{"name":"heart_section_animation","translation":[0.016780879348516464,-0.0028468607924878597,-0.05999450758099556]},{"name":"mitral_valve_section_animation","translation":[0.03764457628130913,-0.015026235952973366,-0.05076294019818306]},{"name":"aortic_valve_section_animation","translation":[-0.0505962111055851,-0.0029282807372510433,0.01961059495806694]},{"name":"pulmonary_valve_section_animation","translation":[0.046766962856054306,0.023729657754302025,0.07153625786304474]},{"name":"tricuspid_valve_section_animation","translation":[-0.0505962111055851,-0.0029282807372510433,0.01961059495806694]},{"children":[123,125,128,131,134,137,138,139,140,141,142,143,144],"name":"studio_setup_grp","scale":[2.5399999618530273,2.5399999618530273,2.5399999618530273]},{"children":[124],"name":"cam_preview_Target","rotation":[-0.015465965494513512,0.7382935881614685,-0.014121560379862785,0.6741542220115662],"scale":[1,1.000000238418579,0.9999998211860657],"translation":[2.5674097537994385,132.3781280517578,33.447113037109375]},{"name":"Object_124"},{"children":[126],"name":"light_down_Target","rotation":[-0.22999177873134613,0.6350824236869812,0.7339757680892944,0.0710894763469696],"scale":[0.2540642321109772,0.25406429171562195,0.2540642023086548],"translation":[0.7843413949012756,139.8832550048828,0.2250257283449173]},{"children":[127],"matrix":[1,0,0,0,0,2.220446049250313e-16,1,0,0,-1,2.220446049250313e-16,0,0,0,0,1],"name":"Object_126"},{"name":"Object_127"},{"children":[129],"name":"light_up_Target","rotation":[-0.3832075595855713,-0.4766410291194916,-0.18253250420093536,0.7698358297348022],"scale":[0.19839853048324585,0.19839853048324585,0.19839848577976227],"translation":[0.04166904091835022,131.9462432861328,4.130982875823975]},{"children":[130],"matrix":[1,0,0,0,0,2.220446049250313e-16,1,0,0,-1,2.220446049250313e-16,0,0,0,0,1],"name":"Object_129"},{"name":"Object_130"},{"children":[132],"name":"light_down","rotation":[0.34049344062805176,0.17987072467803955,-0.06653571873903275,0.9204801917076111],"scale":[0.25598379969596863,0.25598371028900146,0.25598376989364624],"translation":[17.95554542541504,187.4674530029297,48.2174072265625]},{"children":[133],"matrix":[1,0,0,0,0,2.220446049250313e-16,1,0,0,-1,2.220446049250313e-16,0,0,0,0,1],"name":"Object_132"},{"name":"Object_133"},{"children":[135],"name":"light_up","rotation":[0.9751608371734619,-0.002318472135812044,0.010218673385679722,0.2212504893541336],"scale":[0.2917914390563965,0.29179149866104126,0.2917914390563965],"translation":[0.48058250546455383,109.58360290527344,14.71717357635498]},{"children":[136],"matrix":[1,0,0,0,0,2.220446049250313e-16,1,0,0,-1,2.220446049250313e-16,0,0,0,0,1],"name":"Object_135"},{"name":"Object_136"},{"name":"light_up_2","rotation":[-0.410112589597702,0.17423565685749054,0.08013995736837387,0.8916429877281189],"scale":[0.25598379969596863,0.25598379969596863,0.25598371028900146],"translation":[17.95553970336914,187.46742248535156,48.217411041259766]},{"name":"light_down_2","rotation":[0.5330950617790222,-0.008865105919539928,0.005586292129009962,0.8459904789924622],"scale":[0.2917914092540741,0.2917914092540741,0.29179149866104126],"translation":[0.48058244585990906,109.58363342285156,14.71717357635498]},{"name":"light_up_Target_2","rotation":[0.8153247833251953,0.207966148853302,0.4661060869693756,-0.27338746190071106],"scale":[0.19839853048324585,0.19839850068092346,0.19839856028556824],"translation":[0.04166904091835022,131.9462432861328,4.130982875823975]},{"name":"light_down_Target_2","rotation":[-0.21289658546447754,-0.06992816179990768,0.9680703282356262,-0.1123608946800232],"scale":[0.2540642023086548,0.2540642321109772,0.25406429171562195],"translation":[0.7843413949012756,139.8832550048828,0.2250257283449173]},{"name":"cam_preview_Target_2","rotation":[-0.009455684572458267,-0.6914535760879517,-0.009051027707755566,0.7223023176193237],"scale":[1.0000001192092896,1.0000004768371582,0.9999997615814209],"translation":[-0.5036420822143555,131.4365997314453,-0.8203684091567993]},{"name":"cam_preview","rotation":[-3.432010425025579e-15,4.516913776342335e-8,-7.598131190889035e-8,1],"translation":[-0.5036479830741882,131.4365997314453,246.4217071533203]},{"name":"aiAreaLight1","rotation":[-0.3490835130214691,-0.3268168270587921,-0.13137952983379364,0.8683725595474243],"scale":[11.901257514953613,11.901257514953613,11.901257514953613],"translation":[-16.562938690185547,183.41500854492188,38.57414627075195]},{"name":"aiAreaLight2","rotation":[-0.45109933614730835,0.5030151009559631,0.34960460662841797,0.6490468978881836],"scale":[11.901257514953613,11.901257514953613,11.901257514953613],"translation":[18.511150360107422,169.482421875,-3.7304000854492188]},{"children":[146],"name":"group"},{"name":"pasted__jnt_grp","scale":[2.5399999618530273,2.5399999618530273,2.5399999618530273]}],"scene":0,"scenes":[{"name":"Sketchfab_Scene","nodes":[0]}]}